<svg width="80" height="80" viewBox="0 0 80 80" fill="none" xmlns="http://www.w3.org/2000/svg">
<path fill-rule="evenodd" clip-rule="evenodd" d="M48.3118 6.37244C43.329 8.50723 36.1375 8.50722 31.1548 6.37243C27.1063 4.63793 22.5779 4.47709 18.3995 6.2946C9.58175 10.1301 5.62683 21.3387 9.46466 31.4498C9.46551 31.4521 9.46547 31.4546 9.46454 31.4568V31.4568L10.6622 34.061C14.7107 42.8641 17.7622 52.0923 19.7601 61.5735L21.6606 70.5927C22.3183 73.1855 24.6424 75 27.3057 75C30.166 75 32.6032 72.9137 33.0573 70.0765L35.7365 53.3363C36.0521 51.3647 37.7457 49.9149 39.7334 49.9149C41.721 49.9149 43.4146 51.3647 43.7302 53.3363L46.4094 70.0765C46.8635 72.9137 49.3007 75 52.161 75C54.8242 75 57.1484 73.1855 57.8061 70.5927L59.7066 61.5735C61.7044 52.0923 64.756 42.8641 68.8045 34.061L70.0021 31.4568V31.4568C70.0012 31.4546 70.0011 31.4521 70.002 31.4498C73.8398 21.3387 69.8849 10.1301 61.0672 6.2946C56.8888 4.47707 52.3603 4.63792 48.3118 6.37244Z" fill="#3B82F6"/>
</svg>
