<svg width="25" height="25" viewBox="0 0 25 25" fill="none" xmlns="http://www.w3.org/2000/svg">
<path d="M5.60167 5.14924L5.29707 4.46388L5.29707 4.46389L5.60167 5.14924ZM10.8077 2.83544L11.1123 3.5208L11.1123 3.5208L10.8077 2.83544ZM14.1922 2.83544L14.4968 2.15008L14.4968 2.15008L14.1922 2.83544ZM19.3776 5.14007L19.073 5.82543L19.073 5.82543L19.3776 5.14007ZM3.1979 8.9624L2.44917 9.00602L2.44917 9.00602L3.1979 8.9624ZM10.3498 21.5385L10.7702 20.9174L10.7702 20.9174L10.3498 21.5385ZM14.6506 21.5392L15.0718 22.1598L15.0718 22.1598L14.6506 21.5392ZM21.7831 8.98468L21.0346 8.93666L21.0346 8.93666L21.7831 8.98468ZM5.90628 5.8346L11.1123 3.5208L10.5031 2.15008L5.29707 4.46389L5.90628 5.8346ZM13.8876 3.5208L19.073 5.82543L19.6822 4.45471L14.4968 2.15008L13.8876 3.5208ZM2.44917 9.00602C2.64014 12.2847 3.21983 14.7319 4.43215 16.7992C5.64321 18.8644 7.4423 20.4758 9.92931 22.1595L10.7702 20.9174C8.36337 19.288 6.77383 17.8271 5.72608 16.0404C4.67958 14.2559 4.13027 12.0716 3.94663 8.91879L2.44917 9.00602ZM15.0718 22.1598C17.5694 20.4649 19.3545 18.8382 20.5536 16.771C21.7531 14.7033 22.324 12.2684 22.5316 9.0327L21.0346 8.93666C20.8347 12.0528 20.2938 14.2296 19.2561 16.0184C18.2182 17.8076 16.6408 19.2823 14.2295 20.9186L15.0718 22.1598ZM9.92931 22.1595C11.4789 23.2087 13.5213 23.212 15.0718 22.1598L14.2295 20.9186C13.189 21.6247 11.8135 21.6238 10.7702 20.9174L9.92931 22.1595ZM11.1123 3.5208C11.9958 3.12816 13.0042 3.12816 13.8876 3.5208L14.4968 2.15008C13.2255 1.58506 11.7744 1.58507 10.5031 2.15008L11.1123 3.5208ZM19.073 5.82543C20.3265 6.38252 21.1192 7.61932 21.0346 8.93666L22.5316 9.0327C22.6595 7.03809 21.4615 5.24549 19.6822 4.45471L19.073 5.82543ZM5.29707 4.46389C3.53049 5.24903 2.33367 7.02308 2.44917 9.00602L3.94663 8.91879C3.87049 7.61154 4.66115 6.38799 5.90628 5.8346L5.29707 4.46389ZM14.875 12.5C14.875 13.8117 13.8117 14.875 12.5 14.875V16.375C14.6401 16.375 16.375 14.6401 16.375 12.5H14.875ZM12.5 14.875C11.1883 14.875 10.125 13.8117 10.125 12.5H8.62498C8.62498 14.6401 10.3599 16.375 12.5 16.375V14.875ZM10.125 12.5C10.125 11.1883 11.1883 10.125 12.5 10.125V8.625C10.3599 8.625 8.62498 10.3599 8.62498 12.5H10.125ZM12.5 10.125C13.8117 10.125 14.875 11.1883 14.875 12.5H16.375C16.375 10.3599 14.6401 8.625 12.5 8.625V10.125Z" fill="white"/>
</svg>
