<svg width="25" height="25" viewBox="0 0 25 25" fill="none" xmlns="http://www.w3.org/2000/svg">
<path d="M21.8938 15.4538L21.6485 16.1625L21.6485 16.1625L21.8938 15.4538ZM21.8938 9.54622L22.1392 10.2549L22.1392 10.2549L21.8938 9.54622ZM3.10612 15.4538L3.35149 16.1625L3.35149 16.1625L3.10612 15.4538ZM3.10612 9.54622L2.86075 10.2549L2.86075 10.2549L3.10612 9.54622ZM16.1553 9.90533C16.4482 9.61244 16.4482 9.13756 16.1553 8.84467C15.8624 8.55178 15.3875 8.55178 15.0947 8.84467L16.1553 9.90533ZM8.84465 15.0947C8.55176 15.3876 8.55176 15.8624 8.84465 16.1553C9.13754 16.4482 9.61242 16.4482 9.90531 16.1553L8.84465 15.0947ZM6.24998 21.125C4.36301 21.125 2.83331 19.5953 2.83331 17.7083H1.33331C1.33331 20.4237 3.53458 22.625 6.24998 22.625V21.125ZM22.1666 17.7083C22.1666 19.5953 20.637 21.125 18.75 21.125V22.625C21.4654 22.625 23.6666 20.4237 23.6666 17.7083H22.1666ZM18.75 3.875C20.637 3.875 22.1666 5.40469 22.1666 7.29167H23.6666C23.6666 4.57627 21.4654 2.375 18.75 2.375V3.875ZM6.24998 2.375C3.53458 2.375 1.33331 4.57627 1.33331 7.29167H2.83331C2.83331 5.40469 4.36301 3.875 6.24998 3.875V2.375ZM22.1392 14.7451C21.2083 14.4228 20.5416 13.5383 20.5416 12.5H19.0416C19.0416 14.1971 20.1322 15.6375 21.6485 16.1625L22.1392 14.7451ZM20.5416 12.5C20.5416 11.4617 21.2083 10.5772 22.1392 10.2549L21.6485 8.83749C20.1322 9.36246 19.0416 10.8029 19.0416 12.5H20.5416ZM4.45831 12.5C4.45831 13.5383 3.79162 14.4228 2.86075 14.7451L3.35149 16.1625C4.86778 15.6375 5.95831 14.1971 5.95831 12.5H4.45831ZM2.86075 10.2549C3.79162 10.5772 4.45831 11.4617 4.45831 12.5H5.95831C5.95831 10.8029 4.86778 9.36246 3.35149 8.83749L2.86075 10.2549ZM23.6666 8.33333V7.29167H22.1666V8.33333H23.6666ZM22.1666 16.6667V17.7083H23.6666V16.6667H22.1666ZM1.33331 16.6667V17.7083H2.83331V16.6667H1.33331ZM2.83331 8.33333V7.29167H1.33331V8.33333H2.83331ZM18.75 21.125H6.24998V22.625H18.75V21.125ZM18.75 2.375H6.24998V3.875H18.75V2.375ZM2.86075 14.7451C2.16033 14.9876 1.33331 15.6412 1.33331 16.6667H2.83331C2.83331 16.5993 2.85891 16.5157 2.94733 16.4179C3.03973 16.3156 3.18309 16.2208 3.35149 16.1625L2.86075 14.7451ZM22.1392 10.2549C22.8396 10.0124 23.6666 9.3588 23.6666 8.33333H22.1666C22.1666 8.4007 22.1411 8.48425 22.0526 8.58211C21.9602 8.68436 21.8169 8.77919 21.6485 8.8375L22.1392 10.2549ZM3.35149 8.83749C3.18309 8.77919 3.03973 8.68436 2.94733 8.58211C2.85891 8.48425 2.83331 8.4007 2.83331 8.33333H1.33331C1.33331 9.3588 2.16033 10.0124 2.86075 10.2549L3.35149 8.83749ZM21.6485 16.1625C21.8169 16.2208 21.9602 16.3156 22.0526 16.4179C22.1411 16.5157 22.1666 16.5993 22.1666 16.6667H23.6666C23.6666 15.6412 22.8396 14.9876 22.1392 14.7451L21.6485 16.1625ZM9.66665 9.375C9.66665 9.53608 9.53606 9.66667 9.37498 9.66667V11.1667C10.3645 11.1667 11.1666 10.3645 11.1666 9.375H9.66665ZM9.37498 9.66667C9.2139 9.66667 9.08331 9.53608 9.08331 9.375H7.58331C7.58331 10.3645 8.38547 11.1667 9.37498 11.1667V9.66667ZM9.08331 9.375C9.08331 9.21392 9.2139 9.08333 9.37498 9.08333V7.58333C8.38547 7.58333 7.58331 8.38549 7.58331 9.375H9.08331ZM9.37498 9.08333C9.53606 9.08333 9.66665 9.21392 9.66665 9.375H11.1666C11.1666 8.38549 10.3645 7.58333 9.37498 7.58333V9.08333ZM15.9166 15.625C15.9166 15.7861 15.7861 15.9167 15.625 15.9167V17.4167C16.6145 17.4167 17.4166 16.6145 17.4166 15.625H15.9166ZM15.625 15.9167C15.4639 15.9167 15.3333 15.7861 15.3333 15.625H13.8333C13.8333 16.6145 14.6355 17.4167 15.625 17.4167V15.9167ZM15.3333 15.625C15.3333 15.4639 15.4639 15.3333 15.625 15.3333V13.8333C14.6355 13.8333 13.8333 14.6355 13.8333 15.625H15.3333ZM15.625 15.3333C15.7861 15.3333 15.9166 15.4639 15.9166 15.625H17.4166C17.4166 14.6355 16.6145 13.8333 15.625 13.8333V15.3333ZM15.0947 8.84467L8.84465 15.0947L9.90531 16.1553L16.1553 9.90533L15.0947 8.84467Z" fill="white"/>
</svg>
