<svg width="170" height="33" viewBox="0 0 170 33" fill="none" xmlns="http://www.w3.org/2000/svg">
<path d="M44.6136 31H35.196V1.90909H44.9119C47.7623 1.90909 50.2102 2.49148 52.2557 3.65625C54.3011 4.81155 55.8684 6.47348 56.9574 8.64205C58.0559 10.8011 58.6051 13.3911 58.6051 16.4119C58.6051 19.4422 58.0511 22.0464 56.9432 24.2244C55.8447 26.4025 54.2538 28.0786 52.1705 29.2528C50.0871 30.4176 47.5682 31 44.6136 31ZM39.5852 27.1648H44.3722C46.5881 27.1648 48.4299 26.7481 49.8977 25.9148C51.3655 25.072 52.464 23.8551 53.1932 22.2642C53.9223 20.6638 54.2869 18.7131 54.2869 16.4119C54.2869 14.1297 53.9223 12.1932 53.1932 10.6023C52.4735 9.01136 51.3987 7.80398 49.9688 6.98011C48.5388 6.15625 46.7633 5.74432 44.642 5.74432H39.5852V27.1648ZM73.1257 31.4403C70.9761 31.4403 69.1248 30.9811 67.5717 30.0625C66.0282 29.1345 64.835 27.8324 63.9922 26.1562C63.1589 24.4706 62.7422 22.4962 62.7422 20.233C62.7422 17.9981 63.1589 16.0284 63.9922 14.3239C64.835 12.6193 66.0092 11.2888 67.5149 10.3324C69.0301 9.37595 70.8009 8.89773 72.8274 8.89773C74.0585 8.89773 75.2517 9.10133 76.407 9.50852C77.5623 9.91572 78.5992 10.5549 79.5178 11.4261C80.4363 12.2973 81.1607 13.429 81.6911 14.821C82.2214 16.2036 82.4865 17.8845 82.4865 19.8636V21.3693H65.1428V18.1875H78.3246C78.3246 17.0701 78.0973 16.0805 77.6428 15.2188C77.1882 14.3475 76.549 13.661 75.7251 13.1591C74.9107 12.6572 73.9543 12.4062 72.8558 12.4062C71.6626 12.4062 70.621 12.6998 69.7308 13.2869C68.8501 13.8646 68.1683 14.6222 67.6854 15.5597C67.2119 16.4877 66.9751 17.4962 66.9751 18.5852V21.071C66.9751 22.5294 67.2308 23.7699 67.7422 24.7926C68.263 25.8153 68.9875 26.5966 69.9155 27.1364C70.8435 27.6667 71.9278 27.9318 73.1683 27.9318C73.9732 27.9318 74.7072 27.8182 75.37 27.5909C76.0329 27.3542 76.6058 27.0038 77.0888 26.5398C77.5717 26.0758 77.9411 25.5028 78.1967 24.821L82.2166 25.5455C81.8946 26.7292 81.317 27.7661 80.4837 28.6562C79.6598 29.5369 78.6229 30.2235 77.3729 30.7159C76.1323 31.1989 74.7166 31.4403 73.1257 31.4403ZM91.446 18.0455V31H87.1989V9.18182H91.2756V12.733H91.5455C92.0473 11.5777 92.8333 10.6496 93.9034 9.94886C94.983 9.24811 96.3419 8.89773 97.9801 8.89773C99.4669 8.89773 100.769 9.21023 101.886 9.83523C103.004 10.4508 103.87 11.3693 104.486 12.5909C105.101 13.8125 105.409 15.3229 105.409 17.1222V31H101.162V17.6335C101.162 16.0521 100.75 14.8163 99.9261 13.9261C99.1023 13.0265 97.9706 12.5767 96.5312 12.5767C95.5464 12.5767 94.6705 12.7898 93.9034 13.2159C93.1458 13.642 92.5445 14.267 92.0994 15.0909C91.6638 15.9053 91.446 16.8902 91.446 18.0455ZM121.29 9.18182V12.5909H109.372V9.18182H121.29ZM112.568 3.95455H116.815V24.5938C116.815 25.4176 116.938 26.0379 117.185 26.4545C117.431 26.8617 117.748 27.1411 118.136 27.2926C118.534 27.4347 118.965 27.5057 119.429 27.5057C119.77 27.5057 120.068 27.482 120.324 27.4347C120.58 27.3873 120.778 27.3494 120.92 27.321L121.688 30.8295C121.441 30.9242 121.091 31.0189 120.636 31.1136C120.182 31.2178 119.614 31.2746 118.932 31.2841C117.814 31.303 116.773 31.1042 115.807 30.6875C114.841 30.2708 114.06 29.6269 113.463 28.7557C112.866 27.8845 112.568 26.7907 112.568 25.4744V3.95455ZM132.337 31.483C130.955 31.483 129.705 31.2273 128.587 30.7159C127.47 30.1951 126.585 29.4422 125.931 28.4574C125.287 27.4725 124.965 26.2652 124.965 24.8352C124.965 23.6042 125.202 22.5909 125.675 21.7955C126.149 21 126.788 20.3703 127.593 19.9062C128.398 19.4422 129.298 19.0919 130.292 18.8551C131.286 18.6184 132.299 18.4384 133.332 18.3153C134.638 18.1638 135.699 18.0407 136.513 17.946C137.328 17.8419 137.92 17.6761 138.289 17.4489C138.658 17.2216 138.843 16.8523 138.843 16.3409V16.2415C138.843 15.0009 138.493 14.0398 137.792 13.358C137.101 12.6761 136.068 12.3352 134.695 12.3352C133.265 12.3352 132.138 12.6525 131.315 13.2869C130.5 13.9119 129.937 14.608 129.624 15.375L125.633 14.4659C126.106 13.1402 126.798 12.0701 127.707 11.2557C128.625 10.4318 129.681 9.83523 130.874 9.46591C132.067 9.08712 133.322 8.89773 134.638 8.89773C135.51 8.89773 136.433 9.00189 137.408 9.21023C138.393 9.40909 139.312 9.77841 140.164 10.3182C141.026 10.858 141.731 11.6297 142.281 12.6335C142.83 13.6278 143.104 14.9205 143.104 16.5114V31H138.957V28.017H138.786C138.512 28.5663 138.1 29.1061 137.55 29.6364C137.001 30.1667 136.296 30.607 135.434 30.9574C134.572 31.3078 133.54 31.483 132.337 31.483ZM133.261 28.0739C134.435 28.0739 135.439 27.8419 136.272 27.3778C137.115 26.9138 137.754 26.3078 138.19 25.5597C138.635 24.8021 138.857 23.9924 138.857 23.1307V20.3182C138.706 20.4697 138.412 20.6117 137.977 20.7443C137.55 20.8674 137.063 20.9763 136.513 21.071C135.964 21.1562 135.429 21.2367 134.908 21.3125C134.388 21.3788 133.952 21.4356 133.602 21.483C132.778 21.5871 132.025 21.7623 131.343 22.0085C130.671 22.2547 130.131 22.6098 129.724 23.0739C129.326 23.5284 129.127 24.1345 129.127 24.892C129.127 25.9432 129.515 26.7386 130.292 27.2784C131.068 27.8087 132.058 28.0739 133.261 28.0739ZM153.009 1.90909V31H148.761V1.90909H153.009Z" fill="#4F99FC"/>
<path fill-rule="evenodd" clip-rule="evenodd" d="M20.5329 2.62863C18.4152 3.50923 15.3588 3.50923 13.2412 2.62863C11.5206 1.91315 9.59599 1.8468 7.82017 2.59652C4.07264 4.17867 2.3918 8.80222 4.02287 12.9731C4.02323 12.974 4.02322 12.975 4.02282 12.9759V12.9759L4.53182 14.0502C6.25242 17.6814 7.54935 21.4881 8.39843 25.3991L9.20614 29.1195C9.48566 30.189 10.4734 30.9375 11.6053 30.9375C12.8209 30.9375 13.8567 30.0769 14.0497 28.9066L15.1884 22.0012C15.3225 21.1879 16.0423 20.5899 16.8871 20.5899C17.7318 20.5899 18.4516 21.1879 18.5857 22.0012L19.7244 28.9066C19.9174 30.0769 20.9532 30.9375 22.1688 30.9375C23.3007 30.9375 24.2885 30.189 24.568 29.1195L25.3757 25.3991C26.2248 21.4881 27.5217 17.6814 29.2423 14.0502L29.7513 12.9759V12.9759C29.7509 12.975 29.7509 12.974 29.7512 12.9731C31.3823 8.80222 29.7015 4.17867 25.9539 2.59652C24.1781 1.84679 22.2535 1.91314 20.5329 2.62863Z" fill="#4F99FC"/>
</svg>
