<svg width="25" height="25" viewBox="0 0 25 25" fill="none" xmlns="http://www.w3.org/2000/svg">
<path d="M9.87331 15.0645C9.56373 14.7893 9.08967 14.8172 8.81448 15.1268C8.5393 15.4364 8.56718 15.9104 8.87677 16.1856L9.87331 15.0645ZM16.1233 16.1856C16.4329 15.9104 16.4608 15.4364 16.1856 15.1268C15.9104 14.8172 15.4364 14.7893 15.1268 15.0645L16.1233 16.1856ZM16.9584 10.4167C16.9584 10.5778 16.8278 10.7084 16.6667 10.7084V12.2084C17.6562 12.2084 18.4584 11.4062 18.4584 10.4167H16.9584ZM16.6667 10.7084C16.5056 10.7084 16.375 10.5778 16.375 10.4167H14.875C14.875 11.4062 15.6772 12.2084 16.6667 12.2084V10.7084ZM16.375 10.4167C16.375 10.2556 16.5056 10.125 16.6667 10.125V8.62504C15.6772 8.62504 14.875 9.4272 14.875 10.4167H16.375ZM16.6667 10.125C16.8278 10.125 16.9584 10.2556 16.9584 10.4167H18.4584C18.4584 9.4272 17.6562 8.62504 16.6667 8.62504V10.125ZM22.1667 12.5C22.1667 17.8388 17.8388 22.1667 12.5 22.1667V23.6667C18.6672 23.6667 23.6667 18.6672 23.6667 12.5H22.1667ZM12.5 22.1667C7.16129 22.1667 2.83337 17.8388 2.83337 12.5H1.33337C1.33337 18.6672 6.33286 23.6667 12.5 23.6667V22.1667ZM2.83337 12.5C2.83337 7.16129 7.16129 2.83337 12.5 2.83337V1.33337C6.33286 1.33337 1.33337 6.33286 1.33337 12.5H2.83337ZM12.5 2.83337C17.8388 2.83337 22.1667 7.16129 22.1667 12.5H23.6667C23.6667 6.33286 18.6672 1.33337 12.5 1.33337V2.83337ZM8.62504 10.4167C8.62504 10.5778 8.49446 10.7084 8.33337 10.7084V12.2084C9.32288 12.2084 10.125 11.4062 10.125 10.4167H8.62504ZM8.33337 10.7084C8.17229 10.7084 8.04171 10.5778 8.04171 10.4167H6.54171C6.54171 11.4062 7.34386 12.2084 8.33337 12.2084V10.7084ZM8.04171 10.4167C8.04171 10.2556 8.17229 10.125 8.33337 10.125V8.62504C7.34386 8.62504 6.54171 9.4272 6.54171 10.4167H8.04171ZM8.33337 10.125C8.49446 10.125 8.62504 10.2556 8.62504 10.4167H10.125C10.125 9.4272 9.32288 8.62504 8.33337 8.62504V10.125ZM9.37504 15.625C8.87677 16.1856 8.877 16.1858 8.87724 16.186C8.87732 16.1861 8.87756 16.1863 8.87773 16.1865C8.87807 16.1868 8.87843 16.1871 8.87881 16.1874C8.87956 16.1881 8.88039 16.1888 8.88129 16.1896C8.8831 16.1912 8.8852 16.193 8.8876 16.1951C8.89241 16.1992 8.8984 16.2044 8.90558 16.2104C8.91992 16.2225 8.939 16.2382 8.96272 16.2571C9.01014 16.2947 9.07627 16.345 9.16037 16.4035C9.32831 16.5203 9.56953 16.6712 9.87791 16.8207C10.4947 17.1198 11.3877 17.4167 12.5 17.4167V15.9167C11.6592 15.9167 10.9897 15.6928 10.5323 15.471C10.3036 15.3601 10.1298 15.2506 10.017 15.1721C9.96068 15.133 9.92 15.1018 9.8957 15.0825C9.88356 15.0729 9.87555 15.0662 9.87178 15.0631C9.86989 15.0615 9.86907 15.0608 9.86932 15.061C9.86945 15.0611 9.86984 15.0614 9.87051 15.062C9.87084 15.0623 9.87124 15.0626 9.87171 15.0631C9.87194 15.0633 9.87219 15.0635 9.87246 15.0637C9.87259 15.0638 9.87281 15.064 9.87287 15.0641C9.87309 15.0643 9.87331 15.0645 9.37504 15.625ZM12.5 17.4167C13.6123 17.4167 14.5053 17.1198 15.1222 16.8207C15.4306 16.6712 15.6718 16.5203 15.8397 16.4035C15.9238 16.345 15.9899 16.2947 16.0374 16.2571C16.0611 16.2382 16.0802 16.2225 16.0945 16.2104C16.1017 16.2044 16.1077 16.1992 16.1125 16.1951C16.1149 16.193 16.117 16.1912 16.1188 16.1896C16.1197 16.1888 16.1205 16.1881 16.1213 16.1874C16.1217 16.1871 16.122 16.1868 16.1224 16.1865C16.1225 16.1863 16.1228 16.1861 16.1228 16.186C16.1231 16.1858 16.1233 16.1856 15.625 15.625C15.1268 15.0645 15.127 15.0643 15.1272 15.0641C15.1273 15.064 15.1275 15.0638 15.1276 15.0637C15.1279 15.0635 15.1281 15.0633 15.1284 15.0631C15.1288 15.0626 15.1292 15.0623 15.1296 15.062C15.1302 15.0614 15.1306 15.0611 15.1308 15.061C15.131 15.0608 15.1302 15.0615 15.1283 15.0631C15.1245 15.0662 15.1165 15.0729 15.1044 15.0825C15.0801 15.1018 15.0394 15.133 14.9831 15.1721C14.8703 15.2506 14.6965 15.3601 14.4678 15.471C14.0104 15.6928 13.3409 15.9167 12.5 15.9167V17.4167Z" fill="white"/>
</svg>
