<svg width="25" height="25" viewBox="0 0 25 25" fill="none" xmlns="http://www.w3.org/2000/svg">
<path d="M13.25 9.37492C13.25 8.96071 12.9142 8.62492 12.5 8.62492C12.0858 8.62492 11.75 8.96071 11.75 9.37492H13.25ZM13.0758 12.7878L13.4112 12.117L13.4112 12.117L13.0758 12.7878ZM14.2479 14.2124C14.6184 14.3976 15.0689 14.2475 15.2542 13.877C15.4394 13.5065 15.2892 13.056 14.9188 12.8708L14.2479 14.2124ZM11.75 9.37492V11.8561H13.25V9.37492H11.75ZM12.7404 13.4586L14.2479 14.2124L14.9188 12.8708L13.4112 12.117L12.7404 13.4586ZM11.75 11.8561C11.75 12.5348 12.1334 13.1552 12.7404 13.4586L13.4112 12.117C13.3124 12.0676 13.25 11.9666 13.25 11.8561H11.75ZM6.25001 2.83325H18.75V1.33325H6.25001V2.83325ZM22.1667 6.24992V18.7499H23.6667V6.24992H22.1667ZM18.75 22.1666H6.25001V23.6666H18.75V22.1666ZM2.83334 18.7499V6.24992H1.33334V18.7499H2.83334ZM6.25001 22.1666C4.36304 22.1666 2.83334 20.6369 2.83334 18.7499H1.33334C1.33334 21.4653 3.53461 23.6666 6.25001 23.6666V22.1666ZM22.1667 18.7499C22.1667 20.6369 20.637 22.1666 18.75 22.1666V23.6666C21.4654 23.6666 23.6667 21.4653 23.6667 18.7499H22.1667ZM18.75 2.83325C20.637 2.83325 22.1667 4.36295 22.1667 6.24992H23.6667C23.6667 3.53452 21.4654 1.33325 18.75 1.33325V2.83325ZM6.25001 1.33325C3.53461 1.33325 1.33334 3.53452 1.33334 6.24992H2.83334C2.83334 4.36295 4.36304 2.83325 6.25001 2.83325V1.33325ZM7.29168 5.95825H17.7083V4.45825H7.29168V5.95825ZM19.0417 7.29159V17.7083H20.5417V7.29159H19.0417ZM17.7083 19.0416H7.29168V20.5416H17.7083V19.0416ZM5.95834 17.7083V7.29159H4.45834V17.7083H5.95834ZM7.29168 19.0416C6.5553 19.0416 5.95834 18.4446 5.95834 17.7083H4.45834C4.45834 19.2731 5.72687 20.5416 7.29168 20.5416V19.0416ZM19.0417 17.7083C19.0417 18.4446 18.4447 19.0416 17.7083 19.0416V20.5416C19.2732 20.5416 20.5417 19.2731 20.5417 17.7083H19.0417ZM17.7083 5.95825C18.4447 5.95825 19.0417 6.55521 19.0417 7.29159H20.5417C20.5417 5.72678 19.2732 4.45825 17.7083 4.45825V5.95825ZM7.29168 4.45825C5.72687 4.45825 4.45834 5.72678 4.45834 7.29159H5.95834C5.95834 6.55521 6.5553 5.95825 7.29168 5.95825V4.45825Z" fill="white"/>
</svg>
