<svg width="27" height="27" viewBox="0 0 27 27" fill="none" xmlns="http://www.w3.org/2000/svg">
<path d="M2.25 6V5.25C1.83579 5.25 1.5 5.58579 1.5 6H2.25ZM24.75 6H25.5C25.5 5.58579 25.1642 5.25 24.75 5.25V6ZM7.85688 15.6141C7.64377 15.9693 7.75894 16.43 8.11413 16.6431C8.46931 16.8562 8.93001 16.7411 9.14312 16.3859L7.85688 15.6141ZM9.85281 13.7453L9.20969 13.3594L9.20969 13.3594L9.85281 13.7453ZM17.1472 13.2547L16.5041 12.8688L16.5041 12.8688L17.1472 13.2547ZM19.1431 11.3859C19.3562 11.0307 19.2411 10.57 18.8859 10.3569C18.5307 10.1438 18.07 10.2589 17.8569 10.6141L19.1431 11.3859ZM14.25 21C14.25 20.5858 13.9142 20.25 13.5 20.25C13.0858 20.25 12.75 20.5858 12.75 21H14.25ZM12.75 26C12.75 26.4142 13.0858 26.75 13.5 26.75C13.9142 26.75 14.25 26.4142 14.25 26H12.75ZM3.5 1.75H23.5V0.25H3.5V1.75ZM23.5 5.25H3.5V6.75H23.5V5.25ZM3.5 5.25C2.5335 5.25 1.75 4.4665 1.75 3.5H0.25C0.25 5.29493 1.70508 6.75 3.5 6.75V5.25ZM25.25 3.5C25.25 4.4665 24.4665 5.25 23.5 5.25V6.75C25.2949 6.75 26.75 5.29493 26.75 3.5H25.25ZM23.5 1.75C24.4665 1.75 25.25 2.5335 25.25 3.5H26.75C26.75 1.70507 25.2949 0.25 23.5 0.25V1.75ZM3.5 0.25C1.70507 0.25 0.25 1.70507 0.25 3.5H1.75C1.75 2.5335 2.5335 1.75 3.5 1.75V0.25ZM2.25 6.75H24.75V5.25H2.25V6.75ZM24 6V18.5H25.5V6H24ZM22.25 20.25H4.75V21.75H22.25V20.25ZM3 18.5V6H1.5V18.5H3ZM4.75 20.25C3.7835 20.25 3 19.4665 3 18.5H1.5C1.5 20.2949 2.95507 21.75 4.75 21.75V20.25ZM24 18.5C24 19.4665 23.2165 20.25 22.25 20.25V21.75C24.0449 21.75 25.5 20.2949 25.5 18.5H24ZM9.14312 16.3859L10.4959 14.1312L9.20969 13.3594L7.85688 15.6141L9.14312 16.3859ZM17.7903 13.6406L19.1431 11.3859L17.8569 10.6141L16.5041 12.8688L17.7903 13.6406ZM12.9143 13.9685C14.21 15.588 16.7233 15.419 17.7903 13.6406L16.5041 12.8688C15.9748 13.7509 14.7283 13.8347 14.0857 13.0315L12.9143 13.9685ZM10.4959 14.1312C11.0252 13.2491 12.2717 13.1653 12.9143 13.9685L14.0857 13.0315C12.79 11.412 10.2767 11.581 9.20969 13.3594L10.4959 14.1312ZM12.75 21V26H14.25V21H12.75Z" fill="white"/>
</svg>
