<svg width="25" height="25" viewBox="0 0 25 25" fill="none" xmlns="http://www.w3.org/2000/svg">
<path fill-rule="evenodd" clip-rule="evenodd" d="M17.2474 7.81426C17.536 7.49355 17.51 6.99957 17.1893 6.71093C16.8686 6.42229 16.3746 6.44829 16.086 6.769L9.82038 13.7308L8.82138 12.9316C8.48446 12.662 7.99283 12.7167 7.72329 13.0536C7.45375 13.3905 7.50838 13.8821 7.8453 14.1517L8.77336 14.8941L8.02598 15.7246C7.56455 16.2373 6.78336 16.3012 6.24474 15.8703L2.57138 12.9316C2.23446 12.662 1.74283 12.7167 1.47329 13.0536C1.20375 13.3905 1.25838 13.8821 1.5953 14.1517L5.26866 17.0904C6.45361 18.0383 8.17223 17.8978 9.18738 16.7698L9.99553 15.8719L11.5187 17.0904C12.7036 18.0383 14.4222 17.8978 15.4374 16.7698L23.4974 7.81426C23.786 7.49355 23.76 6.99957 23.4393 6.71093C23.1186 6.42229 22.6246 6.44829 22.336 6.769L14.276 15.7246C13.8145 16.2373 13.0334 16.3012 12.4947 15.8703L11.0425 14.7085L17.2474 7.81426Z" fill="white"/>
</svg>
